# xmcd
#
# Track frame offsets: 
#        150
#        14504
#        28158
#        43990
#        61259
#        76235
#        90481
#        109278
#        127800
#        144535
#        159656
#        175924
#        193371
#        208415
#        222733
#        237337
#        255144
#        270736
#        286656
#        299959
#
# Disc length: 4191 seconds
#
# Revision: 1
# Processed by: cddbd v1.5.2PL0 Copyright (c) Steve Scherf et al.
# Submitted via: ExactAudioCopy v0.99pb5
#
DISCID=3a105d14
DTITLE=Various Artist - Doppelt Gut - Folge 38 (1-2011) - CD 2
DYEAR=2010
DGENRE=Schlager
TTITLE0=Jürgen Drews - Über uns ist nur der Himmel
TTITLE1=Anna-Maria Zimmermann - Hurra wir leben noch
TTITLE2=Fantasy - Halt' mein Herz
TTITLE3=Rosanna Rocci - Jeden Sommer denk' ich dran
TTITLE4=G.G. Anderson - Schäfchen zählen
TTITLE5=Andrea - Hinter dem Meer
TTITLE6=Christian Lais - Die Nacht hat dein Gesicht
TTITLE7=Simone - Halt mich ein letztes Mal
TTITLE8=Roger Whittaker - Shannon River Lady
TTITLE9=Mary Roos - So viel Glück
TTITLE10=Christian Petru - Sternenklar
TTITLE11=Sarah-Stephanie - Eiskalter Sommer
TTITLE12=Michael Stein - Unser Lied im Radio
TTITLE13=Uta Bresan - Es hat alles seine Zeit
TTITLE14=Axel Fischer - Du trägst keine Liebe in dir 
TTITLE15=Birgit Langer - Tränen die du lachst
TTITLE16=Wolfgang Frank - Sommer-Sinfonie
TTITLE17=Holger Schäfer - Sonne und Leben und mehr
TTITLE18=Mara Kayser - Die wirklich guten Männer
TTITLE19=Gerd Jörling and sein Tanzpalais - Samba mit dir
EXTD=
EXTT0=
EXTT1=
EXTT2=
EXTT3=
EXTT4=
EXTT5=
EXTT6=
EXTT7=
EXTT8=
EXTT9=
EXTT10=
EXTT11=
EXTT12=
EXTT13=
EXTT14=
EXTT15=
EXTT16=
EXTT17=
EXTT18=
EXTT19=
PLAYORDER=
